<mxfile host="65bd71144e">
    <diagram name="Page-1" id="bHCbOvO1ouY3oDjv0a3s">
        <mxGraphModel dx="1682" dy="728" grid="1" gridSize="10" guides="1" tooltips="1" connect="1" arrows="1" fold="1" page="1" pageScale="1" pageWidth="850" pageHeight="1100" math="0" shadow="0">
            <root>
                <mxCell id="0"/>
                <mxCell id="1" parent="0"/>
                <mxCell id="F2OqH7zCpj2TFXcmhYLf-1" value="Store" style="whiteSpace=wrap;html=1;align=center;" parent="1" vertex="1">
                    <mxGeometry x="555" y="470" width="100" height="40" as="geometry"/>
                </mxCell>
                <mxCell id="F2OqH7zCpj2TFXcmhYLf-2" value="&lt;u&gt;StoreID&lt;/u&gt;" style="ellipse;whiteSpace=wrap;html=1;align=center;" parent="1" vertex="1">
                    <mxGeometry x="455" y="370" width="100" height="40" as="geometry"/>
                </mxCell>
                <mxCell id="F2OqH7zCpj2TFXcmhYLf-5" value="Phone" style="ellipse;whiteSpace=wrap;html=1;align=center;" parent="1" vertex="1">
                    <mxGeometry x="655" y="360" width="100" height="40" as="geometry"/>
                </mxCell>
                <mxCell id="F2OqH7zCpj2TFXcmhYLf-7" value="StoreName" style="ellipse;whiteSpace=wrap;html=1;align=center;" parent="1" vertex="1">
                    <mxGeometry x="545" y="350" width="100" height="40" as="geometry"/>
                </mxCell>
                <mxCell id="F2OqH7zCpj2TFXcmhYLf-8" value="Address" style="ellipse;whiteSpace=wrap;html=1;align=center;" parent="1" vertex="1">
                    <mxGeometry x="425" y="430" width="100" height="40" as="geometry"/>
                </mxCell>
                <mxCell id="F2OqH7zCpj2TFXcmhYLf-11" value="Supplier" style="whiteSpace=wrap;html=1;align=center;" parent="1" vertex="1">
                    <mxGeometry x="90" y="500" width="100" height="40" as="geometry"/>
                </mxCell>
                <mxCell id="F2OqH7zCpj2TFXcmhYLf-12" value="&lt;u&gt;SupplierID&lt;/u&gt;" style="ellipse;whiteSpace=wrap;html=1;align=center;" parent="1" vertex="1">
                    <mxGeometry x="-40" y="500" width="100" height="40" as="geometry"/>
                </mxCell>
                <mxCell id="F2OqH7zCpj2TFXcmhYLf-14" value="DelSchedule" style="ellipse;whiteSpace=wrap;html=1;align=center;" parent="1" vertex="1">
                    <mxGeometry x="90" y="410" width="100" height="40" as="geometry"/>
                </mxCell>
                <mxCell id="F2OqH7zCpj2TFXcmhYLf-15" value="Contact" style="ellipse;whiteSpace=wrap;html=1;align=center;" parent="1" vertex="1">
                    <mxGeometry x="210" y="430" width="100" height="40" as="geometry"/>
                </mxCell>
                <mxCell id="F2OqH7zCpj2TFXcmhYLf-17" value="Email" style="ellipse;whiteSpace=wrap;html=1;align=center;" parent="1" vertex="1">
                    <mxGeometry x="140" y="360" width="100" height="40" as="geometry"/>
                </mxCell>
                <mxCell id="F2OqH7zCpj2TFXcmhYLf-18" value="Phone" style="ellipse;whiteSpace=wrap;html=1;align=center;" parent="1" vertex="1">
                    <mxGeometry x="290" y="360" width="100" height="40" as="geometry"/>
                </mxCell>
                <mxCell id="F2OqH7zCpj2TFXcmhYLf-25" value="" style="endArrow=none;html=1;rounded=0;" parent="1" source="F2OqH7zCpj2TFXcmhYLf-17" target="F2OqH7zCpj2TFXcmhYLf-15" edge="1">
                    <mxGeometry relative="1" as="geometry">
                        <mxPoint x="-60" y="359.5" as="sourcePoint"/>
                        <mxPoint x="100" y="359.5" as="targetPoint"/>
                    </mxGeometry>
                </mxCell>
                <mxCell id="F2OqH7zCpj2TFXcmhYLf-26" value="" style="endArrow=none;html=1;rounded=0;" parent="1" source="F2OqH7zCpj2TFXcmhYLf-18" target="F2OqH7zCpj2TFXcmhYLf-15" edge="1">
                    <mxGeometry relative="1" as="geometry">
                        <mxPoint x="230" y="310" as="sourcePoint"/>
                        <mxPoint x="270" y="359.5" as="targetPoint"/>
                    </mxGeometry>
                </mxCell>
                <mxCell id="F2OqH7zCpj2TFXcmhYLf-29" value="" style="endArrow=none;html=1;rounded=0;" parent="1" source="F2OqH7zCpj2TFXcmhYLf-12" target="F2OqH7zCpj2TFXcmhYLf-11" edge="1">
                    <mxGeometry relative="1" as="geometry">
                        <mxPoint x="-60" y="500" as="sourcePoint"/>
                        <mxPoint x="100" y="500" as="targetPoint"/>
                    </mxGeometry>
                </mxCell>
                <mxCell id="F2OqH7zCpj2TFXcmhYLf-30" value="" style="endArrow=none;html=1;rounded=0;" parent="1" source="F2OqH7zCpj2TFXcmhYLf-14" target="F2OqH7zCpj2TFXcmhYLf-11" edge="1">
                    <mxGeometry relative="1" as="geometry">
                        <mxPoint x="-60" y="500" as="sourcePoint"/>
                        <mxPoint x="100" y="500" as="targetPoint"/>
                    </mxGeometry>
                </mxCell>
                <mxCell id="F2OqH7zCpj2TFXcmhYLf-31" value="" style="endArrow=none;html=1;rounded=0;exitX=0.5;exitY=1;exitDx=0;exitDy=0;entryX=0.75;entryY=0;entryDx=0;entryDy=0;" parent="1" source="F2OqH7zCpj2TFXcmhYLf-15" target="F2OqH7zCpj2TFXcmhYLf-11" edge="1">
                    <mxGeometry relative="1" as="geometry">
                        <mxPoint x="160" y="400" as="sourcePoint"/>
                        <mxPoint x="180" y="440" as="targetPoint"/>
                    </mxGeometry>
                </mxCell>
                <mxCell id="F2OqH7zCpj2TFXcmhYLf-33" value="" style="endArrow=none;html=1;rounded=0;" parent="1" source="F2OqH7zCpj2TFXcmhYLf-1" target="F2OqH7zCpj2TFXcmhYLf-5" edge="1">
                    <mxGeometry relative="1" as="geometry">
                        <mxPoint x="745" y="350" as="sourcePoint"/>
                        <mxPoint x="905" y="350" as="targetPoint"/>
                    </mxGeometry>
                </mxCell>
                <mxCell id="F2OqH7zCpj2TFXcmhYLf-34" value="" style="endArrow=none;html=1;rounded=0;" parent="1" source="F2OqH7zCpj2TFXcmhYLf-1" target="F2OqH7zCpj2TFXcmhYLf-7" edge="1">
                    <mxGeometry relative="1" as="geometry">
                        <mxPoint x="645" y="480" as="sourcePoint"/>
                        <mxPoint x="709" y="437" as="targetPoint"/>
                    </mxGeometry>
                </mxCell>
                <mxCell id="F2OqH7zCpj2TFXcmhYLf-35" value="" style="endArrow=none;html=1;rounded=0;" parent="1" source="F2OqH7zCpj2TFXcmhYLf-2" target="F2OqH7zCpj2TFXcmhYLf-1" edge="1">
                    <mxGeometry relative="1" as="geometry">
                        <mxPoint x="655" y="490" as="sourcePoint"/>
                        <mxPoint x="719" y="447" as="targetPoint"/>
                    </mxGeometry>
                </mxCell>
                <mxCell id="F2OqH7zCpj2TFXcmhYLf-36" value="" style="endArrow=none;html=1;rounded=0;" parent="1" source="F2OqH7zCpj2TFXcmhYLf-8" target="F2OqH7zCpj2TFXcmhYLf-1" edge="1">
                    <mxGeometry relative="1" as="geometry">
                        <mxPoint x="665" y="500" as="sourcePoint"/>
                        <mxPoint x="729" y="457" as="targetPoint"/>
                    </mxGeometry>
                </mxCell>
                <mxCell id="F2OqH7zCpj2TFXcmhYLf-38" value="" style="endArrow=none;html=1;rounded=0;" parent="1" source="F2OqH7zCpj2TFXcmhYLf-37" edge="1">
                    <mxGeometry relative="1" as="geometry">
                        <mxPoint x="675" y="510" as="sourcePoint"/>
                        <mxPoint x="740.1607157868391" y="434.3455876171838" as="targetPoint"/>
                    </mxGeometry>
                </mxCell>
                <mxCell id="F2OqH7zCpj2TFXcmhYLf-39" value="" style="endArrow=none;html=1;rounded=0;" parent="1" source="F2OqH7zCpj2TFXcmhYLf-1" target="F2OqH7zCpj2TFXcmhYLf-37" edge="1">
                    <mxGeometry relative="1" as="geometry">
                        <mxPoint x="654" y="470" as="sourcePoint"/>
                        <mxPoint x="740.1607157868391" y="434.3455876171838" as="targetPoint"/>
                    </mxGeometry>
                </mxCell>
                <mxCell id="F2OqH7zCpj2TFXcmhYLf-37" value="OpenHours" style="ellipse;whiteSpace=wrap;html=1;align=center;" parent="1" vertex="1">
                    <mxGeometry x="715" y="410" width="100" height="40" as="geometry"/>
                </mxCell>
                <mxCell id="F2OqH7zCpj2TFXcmhYLf-40" value="STOCKS" style="shape=rhombus;perimeter=rhombusPerimeter;whiteSpace=wrap;html=1;align=center;" parent="1" vertex="1">
                    <mxGeometry x="305" y="490" width="120" height="60" as="geometry"/>
                </mxCell>
                <mxCell id="F2OqH7zCpj2TFXcmhYLf-46" value="" style="endArrow=none;html=1;rounded=0;" parent="1" source="F2OqH7zCpj2TFXcmhYLf-11" target="F2OqH7zCpj2TFXcmhYLf-40" edge="1">
                    <mxGeometry relative="1" as="geometry">
                        <mxPoint x="160" y="519.5" as="sourcePoint"/>
                        <mxPoint x="320" y="519.5" as="targetPoint"/>
                    </mxGeometry>
                </mxCell>
                <mxCell id="F2OqH7zCpj2TFXcmhYLf-47" value="M" style="resizable=0;html=1;whiteSpace=wrap;align=right;verticalAlign=bottom;" parent="F2OqH7zCpj2TFXcmhYLf-46" connectable="0" vertex="1">
                    <mxGeometry x="1" relative="1" as="geometry"/>
                </mxCell>
                <mxCell id="F2OqH7zCpj2TFXcmhYLf-51" value="" style="shape=link;html=1;rounded=0;" parent="1" source="F2OqH7zCpj2TFXcmhYLf-40" target="F2OqH7zCpj2TFXcmhYLf-1" edge="1">
                    <mxGeometry relative="1" as="geometry">
                        <mxPoint x="440" y="549" as="sourcePoint"/>
                        <mxPoint x="600" y="549" as="targetPoint"/>
                    </mxGeometry>
                </mxCell>
                <mxCell id="F2OqH7zCpj2TFXcmhYLf-52" value="N" style="resizable=0;html=1;whiteSpace=wrap;align=right;verticalAlign=bottom;" parent="F2OqH7zCpj2TFXcmhYLf-51" connectable="0" vertex="1">
                    <mxGeometry x="1" relative="1" as="geometry"/>
                </mxCell>
                <mxCell id="F2OqH7zCpj2TFXcmhYLf-53" value="SupName" style="ellipse;whiteSpace=wrap;html=1;align=center;" parent="1" vertex="1">
                    <mxGeometry x="-30" y="430" width="100" height="40" as="geometry"/>
                </mxCell>
                <mxCell id="F2OqH7zCpj2TFXcmhYLf-54" value="" style="endArrow=none;html=1;rounded=0;" parent="1" source="F2OqH7zCpj2TFXcmhYLf-11" target="F2OqH7zCpj2TFXcmhYLf-53" edge="1">
                    <mxGeometry relative="1" as="geometry">
                        <mxPoint x="350" y="460" as="sourcePoint"/>
                        <mxPoint x="510" y="460" as="targetPoint"/>
                    </mxGeometry>
                </mxCell>
                <mxCell id="3" value="Product" style="ellipse;whiteSpace=wrap;html=1;align=center;" vertex="1" parent="1">
                    <mxGeometry x="10" y="370" width="100" height="40" as="geometry"/>
                </mxCell>
                <mxCell id="4" value="" style="endArrow=none;html=1;rounded=0;" edge="1" parent="1" source="F2OqH7zCpj2TFXcmhYLf-11" target="3">
                    <mxGeometry relative="1" as="geometry">
                        <mxPoint x="123.33333333333326" y="510" as="sourcePoint"/>
                        <mxPoint x="13.529411764705856" y="427.6470588235293" as="targetPoint"/>
                    </mxGeometry>
                </mxCell>
                <mxCell id="7" value="FILLED WITH" style="shape=rhombus;perimeter=rhombusPerimeter;whiteSpace=wrap;html=1;align=center;" vertex="1" parent="1">
                    <mxGeometry x="545" y="590" width="120" height="60" as="geometry"/>
                </mxCell>
                <mxCell id="9" value="Product" style="whiteSpace=wrap;html=1;align=center;" vertex="1" parent="1">
                    <mxGeometry x="555" y="720" width="100" height="40" as="geometry"/>
                </mxCell>
                <mxCell id="11" value="" style="endArrow=none;html=1;" edge="1" parent="1" source="9" target="7">
                    <mxGeometry width="50" height="50" relative="1" as="geometry">
                        <mxPoint x="510" y="710" as="sourcePoint"/>
                        <mxPoint x="560" y="660" as="targetPoint"/>
                    </mxGeometry>
                </mxCell>
                <mxCell id="12" value="" style="shape=link;html=1;entryX=0.5;entryY=1;entryDx=0;entryDy=0;" edge="1" parent="1" source="7" target="F2OqH7zCpj2TFXcmhYLf-1">
                    <mxGeometry width="100" relative="1" as="geometry">
                        <mxPoint x="310" y="630" as="sourcePoint"/>
                        <mxPoint x="410" y="630" as="targetPoint"/>
                    </mxGeometry>
                </mxCell>
                <mxCell id="13" value="M" style="resizable=0;html=1;whiteSpace=wrap;align=right;verticalAlign=bottom;" connectable="0" vertex="1" parent="1">
                    <mxGeometry x="315" y="530" as="geometry">
                        <mxPoint x="283" y="57" as="offset"/>
                    </mxGeometry>
                </mxCell>
                <mxCell id="14" value="N" style="resizable=0;html=1;whiteSpace=wrap;align=right;verticalAlign=bottom;" connectable="0" vertex="1" parent="1">
                    <mxGeometry x="619.9957363700547" y="680.0030329537433" as="geometry"/>
                </mxCell>
            </root>
        </mxGraphModel>
    </diagram>
</mxfile>